<?xml version="1.0" encoding="UTF-8" standalone="no"?>
<!-- Created with Inkscape (http://www.inkscape.org/) -->

<svg
   version="1.1"
   id="svg1"
   width="385.36432"
   height="355.31421"
   viewBox="0 0 385.36431 355.31421"
   sodipodi:docname="4d_chart.svg"
   inkscape:version="1.3.2 (091e20e, 2023-11-25, custom)"
   xmlns:inkscape="http://www.inkscape.org/namespaces/inkscape"
   xmlns:sodipodi="http://sodipodi.sourceforge.net/DTD/sodipodi-0.dtd"
   xmlns="http://www.w3.org/2000/svg"
   xmlns:svg="http://www.w3.org/2000/svg">
  <defs
     id="defs1" />
  <sodipodi:namedview
     id="namedview1"
     pagecolor="#ffffff"
     bordercolor="#000000"
     borderopacity="0.25"
     inkscape:showpageshadow="2"
     inkscape:pageopacity="0.0"
     inkscape:pagecheckerboard="0"
     inkscape:deskcolor="#d1d1d1"
     inkscape:zoom="1.8518747"
     inkscape:cx="400.40506"
     inkscape:cy="163.07799"
     inkscape:window-width="2400"
     inkscape:window-height="1262"
     inkscape:window-x="3742"
     inkscape:window-y="-8"
     inkscape:window-maximized="1"
     inkscape:current-layer="g1">
    <inkscape:page
       x="0"
       y="0"
       inkscape:label="1"
       id="page1"
       width="385.36432"
       height="355.31421"
       margin="0"
       bleed="0" />
  </sodipodi:namedview>
  <g
     id="g1"
     inkscape:groupmode="layer"
     inkscape:label="1">
    <path
       id="path1"
       d="M 104.218,149.898 7.285,206.02 M 114.334,155.469 17.405,211.586 M 124.453,161.039 27.521,217.156 M 134.573,166.609 37.64,222.727 M 144.688,172.176 47.76,228.297 M 154.808,177.746 57.875,233.863 M 164.927,183.316 67.995,239.434 M 175.043,188.887 78.114,245.004 M 185.162,194.453 88.23,250.57 M 195.282,200.023 98.35,256.141 m 107.048,-50.547 -96.929,56.117 m -4.251,-111.813 101.18,55.696 M 94.522,155.512 195.706,211.203 M 84.831,161.125 186.014,216.816 M 75.139,166.734 176.319,222.43 M 65.443,172.348 166.627,228.039 M 55.752,177.957 156.935,233.652 M 46.06,183.57 147.24,239.262 M 36.364,189.184 137.548,244.875 M 26.673,194.793 127.856,250.488 M 16.981,200.406 118.161,256.098 M 7.285,206.02 108.469,261.711"
       style="fill:none;stroke:#000000;stroke-width:1.42078;stroke-linecap:round;stroke-linejoin:round;stroke-miterlimit:4;stroke-dasharray:none;stroke-opacity:0.968627"
       transform="scale(1.326848,1.3333333)" />
    <path
       id="path2"
       d="M 96.18,211.418 21.652,99.734"
       style="fill:none;stroke:#000000;stroke-width:1.41732;stroke-linecap:round;stroke-linejoin:round;stroke-miterlimit:4;stroke-dasharray:none;stroke-opacity:0.968627"
       transform="scale(1.3333333)" />
    <path
       id="path3"
       d="M 115.895,211.375 207.727,82.18"
       style="fill:none;stroke:#000000;stroke-width:1.41732;stroke-linecap:round;stroke-linejoin:round;stroke-miterlimit:4;stroke-dasharray:none;stroke-opacity:0.968627"
       transform="scale(1.3333333)" />
    <path
       id="path4"
       d="M 105.824,205.805 92.418,121.938"
       style="fill:none;stroke:#000000;stroke-width:1.41732;stroke-linecap:round;stroke-linejoin:round;stroke-miterlimit:4;stroke-dasharray:none;stroke-opacity:0.968627"
       transform="scale(1.3333333)" />
    <path
       id="path5"
       d="m 105.812,206.613 8.692,4.762 -8.348,4.848 -8.535,-4.797 z"
       style="fill:#999999;fill-opacity:0.883772;fill-rule:nonzero;stroke:none"
       transform="scale(1.3333333)" />
    <path
       id="path6"
       d="m 106.156,216.223 10.492,-94.285"
       style="fill:#999999;fill-opacity:0.883772;fill-rule:nonzero;stroke:#000000;stroke-width:1.41732;stroke-linecap:round;stroke-linejoin:round;stroke-miterlimit:4;stroke-dasharray:none;stroke-opacity:1"
       transform="scale(1.3333333)" />
    <path
       id="path7"
       d="M 78.336,262.422 20.039,227.336"
       style="fill:#999999;fill-opacity:0.883772;fill-rule:nonzero;stroke:#000000;stroke-width:1.41732;stroke-linecap:round;stroke-linejoin:round;stroke-miterlimit:4;stroke-dasharray:none;stroke-opacity:1"
       transform="scale(1.3333333)" />
    <path
       id="path8"
       d="m -111.648,-158.03 -5.254,3.037 0.002,-6.071 z"
       style="fill:#000000;fill-opacity:1;fill-rule:evenodd;stroke:#000000;stroke-width:0.809564;stroke-linecap:butt;stroke-linejoin:miter;stroke-miterlimit:4;stroke-dasharray:none;stroke-opacity:1"
       transform="matrix(-1.3333333,-0.80248267,0.80248267,-1.3333333,0,0)" />
    <path
       id="path9"
       d="M 127.316,265.777 192.77,224.086"
       style="fill:#999999;fill-opacity:0.883772;fill-rule:nonzero;stroke:#000000;stroke-width:1.41732;stroke-linecap:round;stroke-linejoin:round;stroke-miterlimit:4;stroke-dasharray:none;stroke-opacity:1"
       transform="scale(1.3333333)" />
    <path
       id="path10"
       d="m 39.043,246.76 -5.169,2.988 -0.001,-5.977 z"
       style="fill:#000000;fill-opacity:1;fill-rule:evenodd;stroke:#000000;stroke-width:0.796944;stroke-linecap:butt;stroke-linejoin:miter;stroke-miterlimit:4;stroke-dasharray:none;stroke-opacity:1"
       transform="matrix(1.3333333,-0.84927733,0.84927733,1.3333333,0,0)" />
    <path
       id="path11"
       d="m 7.578,214.055 c 0.156,-0.625 0.742,-2.93 2.461,-2.93 0.117,0 0.742,0 1.25,0.313 -0.703,0.156 -1.172,0.742 -1.172,1.367 0,0.39 0.274,0.859 0.938,0.859 0.547,0 1.328,-0.43 1.328,-1.445 0,-1.289 -1.445,-1.641 -2.305,-1.641 -1.445,0 -2.305,1.328 -2.617,1.875 -0.625,-1.641 -1.953,-1.875 -2.695,-1.875 -2.578,0 -4.024,3.203 -4.024,3.828 0,0.274 0.274,0.274 0.313,0.274 0.195,0 0.273,-0.078 0.312,-0.274 0.86,-2.656 2.5,-3.281 3.36,-3.281 0.468,0 1.328,0.234 1.328,1.68 0,0.781 -0.43,2.422 -1.328,5.937 -0.391,1.524 -1.289,2.578 -2.383,2.578 -0.156,0 -0.703,0 -1.25,-0.312 0.625,-0.156 1.172,-0.664 1.172,-1.367 0,-0.664 -0.547,-0.86 -0.899,-0.86 -0.781,0 -1.367,0.625 -1.367,1.446 0,1.132 1.211,1.64 2.305,1.64 1.679,0 2.578,-1.758 2.617,-1.875 0.312,0.899 1.211,1.875 2.695,1.875 2.578,0 3.985,-3.203 3.985,-3.828 0,-0.273 -0.196,-0.273 -0.274,-0.273 -0.234,0 -0.273,0.117 -0.351,0.273 -0.821,2.695 -2.5,3.281 -3.282,3.281 -0.976,0 -1.367,-0.781 -1.367,-1.64 0,-0.547 0.117,-1.094 0.391,-2.188 z"
       style="fill:#000000;fill-opacity:1;fill-rule:nonzero;stroke:none"
       transform="scale(1.3333333)" />
    <path
       id="path12"
       d="m 127.488,133.372 c 0,11.573 -9.383,20.956 -20.953,20.956 -11.574,0 -20.953,-9.383 -20.953,-20.956 0,-11.565 9.379,-20.948 20.953,-20.948 11.57,0 20.953,9.383 20.953,20.948 z"
       style="fill:none;stroke:#000000;stroke-width:1.98068;stroke-linecap:butt;stroke-linejoin:miter;stroke-miterlimit:4;stroke-dasharray:none;stroke-opacity:1"
       transform="scale(1.3333333,0.68273067)" />
    <path
       id="path13"
       d="m 120.504,133.372 c 0,7.72 -6.254,13.968 -13.969,13.968 -7.715,0 -13.969,-6.248 -13.969,-13.968 0,-7.712 6.254,-13.968 13.969,-13.968 7.715,0 13.969,6.256 13.969,13.968 z"
       style="fill:none;stroke:#000000;stroke-width:1.98068;stroke-linecap:butt;stroke-linejoin:miter;stroke-miterlimit:4;stroke-dasharray:none;stroke-opacity:1"
       transform="scale(1.3333333,0.68273067)" />
    <path
       id="path14"
       d="m 113.52,133.372 c 0,3.86 -3.129,6.988 -6.985,6.988 -3.859,0 -6.984,-3.128 -6.984,-6.988 0,-3.852 3.125,-6.98 6.984,-6.98 3.856,0 6.985,3.128 6.985,6.98 z"
       style="fill:none;stroke:#000000;stroke-width:1.98068;stroke-linecap:butt;stroke-linejoin:miter;stroke-miterlimit:4;stroke-dasharray:none;stroke-opacity:1"
       transform="scale(1.3333333,0.68273067)" />
    <path
       id="path15"
       d="m 148.438,133.372 c 0,23.146 -18.762,41.904 -41.903,41.904 -23.144,0 -41.906,-18.758 -41.906,-41.904 0,-23.138 18.762,-41.904 41.906,-41.904 23.141,0 41.903,18.766 41.903,41.904 z"
       style="fill:none;stroke:#000000;stroke-width:1.98068;stroke-linecap:butt;stroke-linejoin:miter;stroke-miterlimit:4;stroke-dasharray:none;stroke-opacity:1"
       transform="scale(1.3333333,0.68273067)" />
    <path
       id="path16"
       d="m 141.453,133.372 c 0,19.293 -15.633,34.924 -34.918,34.924 -19.289,0 -34.922,-15.631 -34.922,-34.924 0,-19.285 15.633,-34.916 34.922,-34.916 19.285,0 34.918,15.631 34.918,34.916 z"
       style="fill:none;stroke:#000000;stroke-width:1.98068;stroke-linecap:butt;stroke-linejoin:miter;stroke-miterlimit:4;stroke-dasharray:none;stroke-opacity:1"
       transform="scale(1.3333333,0.68273067)" />
    <path
       id="path17"
       d="m 134.469,133.372 c 0,15.433 -12.504,27.936 -27.934,27.936 -15.43,0 -27.937,-12.503 -27.937,-27.936 0,-15.425 12.507,-27.936 27.937,-27.936 15.43,0 27.934,12.511 27.934,27.936 z"
       style="fill:none;stroke:#000000;stroke-width:1.98068;stroke-linecap:butt;stroke-linejoin:miter;stroke-miterlimit:4;stroke-dasharray:none;stroke-opacity:1"
       transform="scale(1.3333333,0.68273067)" />
    <path
       id="path18"
       d="m 169.391,133.372 c 0,34.718 -28.141,62.86 -62.856,62.86 -34.715,0 -62.859,-28.142 -62.859,-62.86 0,-34.71 28.144,-62.853 62.859,-62.853 34.715,0 62.856,28.143 62.856,62.853 z"
       style="fill:none;stroke:#000000;stroke-width:1.98068;stroke-linecap:butt;stroke-linejoin:miter;stroke-miterlimit:4;stroke-dasharray:none;stroke-opacity:1"
       transform="scale(1.3333333,0.68273067)" />
    <path
       id="path19"
       d="m 162.406,133.372 c 0,30.858 -25.015,55.88 -55.871,55.88 -30.859,0 -55.875,-25.022 -55.875,-55.88 0,-30.858 25.016,-55.872 55.875,-55.872 30.856,0 55.871,25.014 55.871,55.872 z"
       style="fill:none;stroke:#000000;stroke-width:1.98068;stroke-linecap:butt;stroke-linejoin:miter;stroke-miterlimit:4;stroke-dasharray:none;stroke-opacity:1"
       transform="scale(1.3333333,0.68273067)" />
    <path
       id="path20"
       d="m 155.422,133.372 c 0,27.006 -21.887,48.892 -48.887,48.892 -27,0 -48.89,-21.886 -48.89,-48.892 0,-26.998 21.89,-48.884 48.89,-48.884 27,0 48.887,21.886 48.887,48.884 z"
       style="fill:none;stroke:#000000;stroke-width:1.98068;stroke-linecap:butt;stroke-linejoin:miter;stroke-miterlimit:4;stroke-dasharray:none;stroke-opacity:1"
       transform="scale(1.3333333,0.68273067)" />
    <path
       id="path21"
       d="m 190.344,133.372 c 0,46.291 -37.524,83.816 -83.809,83.816 -46.289,0 -83.812,-37.525 -83.812,-83.816 0,-46.283 37.523,-83.808 83.812,-83.808 46.285,0 83.809,37.525 83.809,83.808 z"
       style="fill:none;stroke:#000000;stroke-width:1.98068;stroke-linecap:butt;stroke-linejoin:miter;stroke-miterlimit:4;stroke-dasharray:none;stroke-opacity:1"
       transform="scale(1.3333333,0.68273067)" />
    <path
       id="path22"
       d="m 183.359,133.372 c 0,42.431 -34.394,76.829 -76.824,76.829 -42.43,0 -76.828,-34.398 -76.828,-76.829 0,-42.423 34.398,-76.821 76.828,-76.821 42.43,0 76.824,34.398 76.824,76.821 z"
       style="fill:none;stroke:#000000;stroke-width:1.98068;stroke-linecap:butt;stroke-linejoin:miter;stroke-miterlimit:4;stroke-dasharray:none;stroke-opacity:1"
       transform="scale(1.3333333,0.68273067)" />
    <path
       id="path23"
       d="m 176.375,133.372 c 0,38.578 -31.27,69.848 -69.84,69.848 -38.574,0 -69.844,-31.27 -69.844,-69.848 0,-38.57 31.27,-69.84 69.844,-69.84 38.57,0 69.84,31.27 69.84,69.84 z"
       style="fill:none;stroke:#000000;stroke-width:1.98068;stroke-linecap:butt;stroke-linejoin:miter;stroke-miterlimit:4;stroke-dasharray:none;stroke-opacity:1"
       transform="scale(1.3333333,0.68273067)" />
    <path
       id="path24"
       d="m 211.297,133.372 c 0,57.864 -46.902,104.765 -104.762,104.765 -57.859,0 -104.762,-46.901 -104.762,-104.765 0,-57.856 46.903,-104.757 104.762,-104.757 57.86,0 104.762,46.901 104.762,104.757 z"
       style="fill:none;stroke:#000000;stroke-width:1.98068;stroke-linecap:butt;stroke-linejoin:miter;stroke-miterlimit:4;stroke-dasharray:none;stroke-opacity:1"
       transform="scale(1.3333333,0.68273067)" />
    <path
       id="path25"
       d="m 204.312,133.372 c 0,54.004 -43.777,97.785 -97.777,97.785 -54.004,0 -97.777,-43.781 -97.777,-97.785 0,-53.996 43.773,-97.777 97.777,-97.777 54,0 97.777,43.781 97.777,97.777 z"
       style="fill:none;stroke:#000000;stroke-width:1.98068;stroke-linecap:butt;stroke-linejoin:miter;stroke-miterlimit:4;stroke-dasharray:none;stroke-opacity:1"
       transform="scale(1.3333333,0.68273067)" />
    <path
       id="path26"
       d="m 197.328,133.372 c 0,50.151 -40.648,90.797 -90.793,90.797 -50.144,0 -90.797,-40.646 -90.797,-90.797 0,-50.143 40.653,-90.789 90.797,-90.789 50.145,0 90.793,40.646 90.793,90.789 z"
       style="fill:none;stroke:#000000;stroke-width:1.98068;stroke-linecap:butt;stroke-linejoin:miter;stroke-miterlimit:4;stroke-dasharray:none;stroke-opacity:1"
       transform="scale(1.3333333,0.68273067)" />
    <path
       id="path27"
       d="m 106.535,133.372 v 20.956"
       style="fill:none;stroke:#000000;stroke-width:1.98068;stroke-linecap:butt;stroke-linejoin:miter;stroke-miterlimit:4;stroke-dasharray:none;stroke-opacity:1"
       transform="scale(1.3333333,0.68273067)" />
    <path
       id="path28"
       d="m 106.535,133.372 h 20.953"
       style="fill:none;stroke:#000000;stroke-width:1.98068;stroke-linecap:butt;stroke-linejoin:miter;stroke-miterlimit:4;stroke-dasharray:none;stroke-opacity:1"
       transform="scale(1.3333333,0.68273067)" />
    <path
       id="path29"
       d="M 106.535,133.372 V 112.424"
       style="fill:none;stroke:#000000;stroke-width:1.98068;stroke-linecap:butt;stroke-linejoin:miter;stroke-miterlimit:4;stroke-dasharray:none;stroke-opacity:1"
       transform="scale(1.3333333,0.68273067)" />
    <path
       id="path30"
       d="M 106.535,133.372 H 85.582"
       style="fill:none;stroke:#000000;stroke-width:1.98068;stroke-linecap:butt;stroke-linejoin:miter;stroke-miterlimit:4;stroke-dasharray:none;stroke-opacity:1"
       transform="scale(1.3333333,0.68273067)" />
    <path
       id="path31"
       d="m 127.488,133.372 h 83.809"
       style="fill:none;stroke:#000000;stroke-width:1.98068;stroke-linecap:butt;stroke-linejoin:miter;stroke-miterlimit:4;stroke-dasharray:none;stroke-opacity:1"
       transform="scale(1.3333333,0.68273067)" />
    <path
       id="path32"
       d="M 126.773,127.956 207.727,106.26"
       style="fill:none;stroke:#000000;stroke-width:1.98068;stroke-linecap:butt;stroke-linejoin:miter;stroke-miterlimit:4;stroke-dasharray:none;stroke-opacity:1"
       transform="scale(1.3333333,0.68273067)" />
    <path
       id="path33"
       d="M 124.68,122.898 197.262,80.994"
       style="fill:none;stroke:#000000;stroke-width:1.98068;stroke-linecap:butt;stroke-linejoin:miter;stroke-miterlimit:4;stroke-dasharray:none;stroke-opacity:1"
       transform="scale(1.3333333,0.68273067)" />
    <path
       id="path34"
       d="M 121.352,118.557 180.613,59.298"
       style="fill:none;stroke:#000000;stroke-width:1.98068;stroke-linecap:butt;stroke-linejoin:miter;stroke-miterlimit:4;stroke-dasharray:none;stroke-opacity:1"
       transform="scale(1.3333333,0.68273067)" />
    <path
       id="path35"
       d="M 117.012,115.231 158.914,42.652"
       style="fill:none;stroke:#000000;stroke-width:1.98068;stroke-linecap:butt;stroke-linejoin:miter;stroke-miterlimit:4;stroke-dasharray:none;stroke-opacity:1"
       transform="scale(1.3333333,0.68273067)" />
    <path
       id="path36"
       d="M 111.957,113.133 133.648,32.185"
       style="fill:none;stroke:#000000;stroke-width:1.98068;stroke-linecap:butt;stroke-linejoin:miter;stroke-miterlimit:4;stroke-dasharray:none;stroke-opacity:1"
       transform="scale(1.3333333,0.68273067)" />
    <path
       id="path37"
       d="M 106.535,112.424 V 28.615"
       style="fill:none;stroke:#000000;stroke-width:1.98068;stroke-linecap:butt;stroke-linejoin:miter;stroke-miterlimit:4;stroke-dasharray:none;stroke-opacity:1"
       transform="scale(1.3333333,0.68273067)" />
    <path
       id="path38"
       d="M 101.109,113.133 79.418,32.185"
       style="fill:none;stroke:#000000;stroke-width:1.98068;stroke-linecap:butt;stroke-linejoin:miter;stroke-miterlimit:4;stroke-dasharray:none;stroke-opacity:1"
       transform="scale(1.3333333,0.68273067)" />
    <path
       id="path39"
       d="M 96.059,115.231 54.152,42.652"
       style="fill:none;stroke:#000000;stroke-width:1.98068;stroke-linecap:butt;stroke-linejoin:miter;stroke-miterlimit:4;stroke-dasharray:none;stroke-opacity:1"
       transform="scale(1.3333333,0.68273067)" />
    <path
       id="path40"
       d="M 91.719,118.557 32.457,59.298"
       style="fill:none;stroke:#000000;stroke-width:1.98068;stroke-linecap:butt;stroke-linejoin:miter;stroke-miterlimit:4;stroke-dasharray:none;stroke-opacity:1"
       transform="scale(1.3333333,0.68273067)" />
    <path
       id="path41"
       d="M 88.391,122.898 15.809,80.994"
       style="fill:none;stroke:#000000;stroke-width:1.98068;stroke-linecap:butt;stroke-linejoin:miter;stroke-miterlimit:4;stroke-dasharray:none;stroke-opacity:1"
       transform="scale(1.3333333,0.68273067)" />
    <path
       id="path42"
       d="M 86.297,127.956 5.34,106.26"
       style="fill:none;stroke:#000000;stroke-width:1.98068;stroke-linecap:butt;stroke-linejoin:miter;stroke-miterlimit:4;stroke-dasharray:none;stroke-opacity:1"
       transform="scale(1.3333333,0.68273067)" />
    <path
       id="path43"
       d="M 85.582,133.372 H 1.773"
       style="fill:none;stroke:#000000;stroke-width:1.98068;stroke-linecap:butt;stroke-linejoin:miter;stroke-miterlimit:4;stroke-dasharray:none;stroke-opacity:1"
       transform="scale(1.3333333,0.68273067)" />
    <path
       id="path44"
       d="M 86.297,138.796 5.34,160.492"
       style="fill:none;stroke:#000000;stroke-width:1.98068;stroke-linecap:butt;stroke-linejoin:miter;stroke-miterlimit:4;stroke-dasharray:none;stroke-opacity:1"
       transform="scale(1.3333333,0.68273067)" />
    <path
       id="path45"
       d="M 88.391,143.854 15.809,185.758"
       style="fill:none;stroke:#000000;stroke-width:1.98068;stroke-linecap:butt;stroke-linejoin:miter;stroke-miterlimit:4;stroke-dasharray:none;stroke-opacity:1"
       transform="scale(1.3333333,0.68273067)" />
    <path
       id="path46"
       d="M 91.719,148.195 32.457,207.454"
       style="fill:none;stroke:#000000;stroke-width:1.98068;stroke-linecap:butt;stroke-linejoin:miter;stroke-miterlimit:4;stroke-dasharray:none;stroke-opacity:1"
       transform="scale(1.3333333,0.68273067)" />
    <path
       id="path47"
       d="M 96.059,151.521 54.152,224.1"
       style="fill:none;stroke:#000000;stroke-width:1.98068;stroke-linecap:butt;stroke-linejoin:miter;stroke-miterlimit:4;stroke-dasharray:none;stroke-opacity:1"
       transform="scale(1.3333333,0.68273067)" />
    <path
       id="path48"
       d="M 101.109,153.611 79.418,234.567"
       style="fill:none;stroke:#000000;stroke-width:1.98068;stroke-linecap:butt;stroke-linejoin:miter;stroke-miterlimit:4;stroke-dasharray:none;stroke-opacity:1"
       transform="scale(1.3333333,0.68273067)" />
    <path
       id="path49"
       d="m 106.535,154.328 v 83.809"
       style="fill:none;stroke:#000000;stroke-width:1.98068;stroke-linecap:butt;stroke-linejoin:miter;stroke-miterlimit:4;stroke-dasharray:none;stroke-opacity:1"
       transform="scale(1.3333333,0.68273067)" />
    <path
       id="path50"
       d="m 111.957,153.611 21.691,80.956"
       style="fill:none;stroke:#000000;stroke-width:1.98068;stroke-linecap:butt;stroke-linejoin:miter;stroke-miterlimit:4;stroke-dasharray:none;stroke-opacity:1"
       transform="scale(1.3333333,0.68273067)" />
    <path
       id="path51"
       d="M 117.012,151.521 158.914,224.1"
       style="fill:none;stroke:#000000;stroke-width:1.98068;stroke-linecap:butt;stroke-linejoin:miter;stroke-miterlimit:4;stroke-dasharray:none;stroke-opacity:1"
       transform="scale(1.3333333,0.68273067)" />
    <path
       id="path52"
       d="m 121.352,148.195 59.261,59.259"
       style="fill:none;stroke:#000000;stroke-width:1.98068;stroke-linecap:butt;stroke-linejoin:miter;stroke-miterlimit:4;stroke-dasharray:none;stroke-opacity:1"
       transform="scale(1.3333333,0.68273067)" />
    <path
       id="path53"
       d="m 124.68,143.854 72.582,41.904"
       style="fill:none;stroke:#000000;stroke-width:1.98068;stroke-linecap:butt;stroke-linejoin:miter;stroke-miterlimit:4;stroke-dasharray:none;stroke-opacity:1"
       transform="scale(1.3333333,0.68273067)" />
    <path
       id="path54"
       d="m 126.773,138.796 80.954,21.696"
       style="fill:none;stroke:#000000;stroke-width:1.98068;stroke-linecap:butt;stroke-linejoin:miter;stroke-miterlimit:4;stroke-dasharray:none;stroke-opacity:1"
       transform="scale(1.3333333,0.68273067)" />
    <path
       id="path55"
       d="m 107.582,133.372 c 0,0.58 -0.469,1.053 -1.047,1.053 -0.578,0 -1.047,-0.473 -1.047,-1.053 0,-0.572 0.469,-1.045 1.047,-1.045 0.578,0 1.047,0.473 1.047,1.045 z"
       style="fill:#000000;fill-opacity:1;fill-rule:nonzero;stroke:#000000;stroke-width:1.98068;stroke-linecap:butt;stroke-linejoin:miter;stroke-miterlimit:4;stroke-dasharray:none;stroke-opacity:1"
       transform="scale(1.3333333,0.68273067)" />
    <path
       id="path56"
       d="M 192.93,32.879 213.652,16.465"
       style="fill:none;stroke:#000000;stroke-width:1.41732;stroke-linecap:round;stroke-linejoin:round;stroke-miterlimit:4;stroke-dasharray:none;stroke-opacity:1"
       transform="scale(1.3333333)" />
    <path
       id="path57"
       d="m 126.479,114.104 -4.806,2.779 0.001,-5.554 z"
       style="fill:#000000;fill-opacity:1;fill-rule:evenodd;stroke:#000000;stroke-width:0.740691;stroke-linecap:butt;stroke-linejoin:miter;stroke-miterlimit:4;stroke-dasharray:none;stroke-opacity:1"
       transform="matrix(1.3333333,-1.0560667,1.0560667,1.3333333,0,0)" />
    <path
       id="path58"
       d="m 192.93,32.879 c 0,0 -0.489,-3.484 -5.801,-8.262 -2.41,-2.168 -8.16,-5.308 -8.16,-5.308"
       style="fill:none;stroke:#000000;stroke-width:1.41732;stroke-linecap:round;stroke-linejoin:round;stroke-miterlimit:4;stroke-dasharray:none;stroke-opacity:1"
       transform="scale(1.3333333)" />
    <path
       id="path59"
       d="m -142.422,60.383 -5.381,3.109 v -6.219 z"
       style="fill:#000000;fill-opacity:1;fill-rule:evenodd;stroke:#000000;stroke-width:0.829384;stroke-linecap:butt;stroke-linejoin:miter;stroke-miterlimit:4;stroke-dasharray:none;stroke-opacity:1"
       transform="matrix(-1.3333333,-0.72773733,0.72773733,-1.3333333,0,0)" />
    <path
       id="path60"
       d="M 175.52,5.117 C 175.52,3.477 175.09,0 172.551,0 c -3.477,0 -7.305,7.031 -7.305,12.734 0,2.344 0.703,5.118 2.969,5.118 3.515,0 7.305,-7.149 7.305,-12.735 z m -7.657,3.399 c 0.43,-1.563 0.938,-3.555 1.953,-5.352 0.664,-1.211 1.563,-2.617 2.696,-2.617 1.211,0 1.367,1.601 1.367,3.008 0,1.25 -0.195,2.5 -0.781,4.961 z m 5,0.82 c -0.273,1.133 -0.781,3.242 -1.758,5.039 -0.859,1.719 -1.796,2.93 -2.89,2.93 -0.82,0 -1.328,-0.743 -1.328,-3.047 0,-1.055 0.156,-2.5 0.781,-4.922 z"
       style="fill:#000000;fill-opacity:1;fill-rule:nonzero;stroke:none"
       transform="scale(1.3333333)" />
    <path
       id="path61"
       d="m 234.605,5.039 c 0,-1.133 -0.429,-1.758 -1.015,-1.758 -0.625,0 -1.289,0.586 -1.289,1.172 0,0.235 0.117,0.508 0.351,0.742 0.43,0.391 0.899,1.055 0.899,2.11 0,0.976 -0.508,2.422 -1.25,3.554 -0.742,1.055 -1.68,1.914 -2.852,1.914 -1.406,0 -2.187,-0.898 -2.422,-2.226 0.274,-0.664 0.86,-2.266 0.86,-2.969 0,-0.273 -0.117,-0.547 -0.469,-0.547 -0.195,0 -0.469,0.078 -0.664,0.43 -0.274,0.508 -0.586,2.109 -0.586,3.008 -0.82,1.172 -1.797,2.304 -3.359,2.304 -1.68,0 -2.188,-1.484 -2.188,-2.851 0,-3.125 2.539,-5.742 2.539,-6.055 0,-0.273 -0.195,-0.469 -0.469,-0.469 -0.312,0 -0.507,0.313 -0.664,0.547 -1.25,1.836 -2.187,4.805 -2.187,7.071 0,1.718 0.547,3.554 2.617,3.554 1.758,0 2.93,-1.25 3.828,-2.617 0.235,1.445 1.211,2.617 2.735,2.617 1.953,0 3.125,-1.523 4.023,-3.398 0.625,-1.211 1.562,-4.61 1.562,-6.133 z"
       style="fill:#000000;fill-opacity:1;fill-rule:nonzero;stroke:none"
       transform="scale(1.3333333)" />
    <path
       id="path62"
       d="m 213.961,210.391 c 0.117,-0.352 0.117,-0.391 0.117,-0.586 0,-0.43 -0.351,-0.664 -0.742,-0.664 -0.234,0 -0.625,0.156 -0.859,0.507 -0.039,0.157 -0.274,0.899 -0.352,1.368 -0.195,0.625 -0.352,1.328 -0.508,1.992 l -1.133,4.492 c -0.078,0.352 -1.172,2.109 -2.812,2.109 -1.25,0 -1.524,-1.093 -1.524,-2.031 0,-1.133 0.43,-2.695 1.25,-4.883 0.391,-1.015 0.508,-1.289 0.508,-1.797 0,-1.093 -0.781,-2.031 -2.031,-2.031 -2.383,0 -3.281,3.633 -3.281,3.828 0,0.274 0.234,0.274 0.273,0.274 0.274,0 0.274,-0.078 0.391,-0.469 0.703,-2.344 1.68,-3.086 2.539,-3.086 0.195,0 0.625,0 0.625,0.781 0,0.625 -0.274,1.289 -0.43,1.758 -1.015,2.656 -1.445,4.063 -1.445,5.235 0,2.226 1.562,2.968 3.047,2.968 0.976,0 1.797,-0.429 2.5,-1.133 -0.313,1.289 -0.625,2.539 -1.602,3.868 -0.664,0.82 -1.601,1.562 -2.734,1.562 -0.352,0 -1.485,-0.078 -1.914,-1.055 0.39,0 0.742,0 1.054,-0.312 0.274,-0.195 0.508,-0.547 0.508,-1.016 0,-0.781 -0.664,-0.859 -0.898,-0.859 -0.586,0 -1.406,0.391 -1.406,1.601 0,1.25 1.093,2.188 2.656,2.188 2.539,0 5.117,-2.266 5.82,-5.078 z"
       style="fill:#000000;fill-opacity:1;fill-rule:nonzero;stroke:none"
       transform="scale(1.3333333)" />
    <path
       id="path65"
       d="M 260.51732,264.54489 328.43676,145.24523"
       style="fill:none;stroke:#000000;stroke-width:1.66251;stroke-linecap:round;stroke-linejoin:round;stroke-miterlimit:4;stroke-dasharray:none;stroke-opacity:1" />
    <g
       id="g85">
      <path
         id="path63"
         d="m 260.51732,264.54489 110.38626,-74.4197"
         style="fill:none;stroke:#000000;stroke-width:1.66251;stroke-linecap:round;stroke-linejoin:round;stroke-miterlimit:4;stroke-dasharray:none;stroke-opacity:1" />
      <g
         id="g84">
        <path
           id="path64"
           d="m 374.88137,187.44346 -3.64051,7.46822 -4.64717,-6.89313 z"
           style="fill:#000000;fill-opacity:1;fill-rule:evenodd;stroke:#000000;stroke-width:1.10834;stroke-linecap:butt;stroke-linejoin:miter;stroke-miterlimit:4;stroke-dasharray:none;stroke-opacity:1" />
        <path
           id="path66"
           d="m 330.80892,141.07636 0.0572,8.30304 -7.22647,-4.11064 z"
           style="fill:#000000;fill-opacity:1;fill-rule:evenodd;stroke:#000000;stroke-width:1.10834;stroke-linecap:butt;stroke-linejoin:miter;stroke-miterlimit:4;stroke-dasharray:none;stroke-opacity:1" />
        <path
           id="path67"
           d="m 335.86292,127.91949 c -0.0373,-0.0553 -0.0695,-0.14128 -0.10976,-0.20098 -0.076,-0.11277 -0.16092,-0.0813 -0.2173,-0.0433 -0.13377,0.0902 -0.10992,0.12556 -0.0239,0.37474 l 3.38716,9.37476 c -0.987,0.50139 -1.74995,0.35003 -2.28809,-0.44819 -0.16621,-0.24653 -0.36968,-0.54835 -0.86811,-2.67585 -0.045,-0.18836 -0.10772,-0.44838 -0.27616,-0.69824 -0.35851,-0.53177 -1.0433,-0.72939 -1.65246,-0.31871 -1.15752,0.78037 -0.40206,2.8407 -0.33796,2.93578 0.0902,0.13377 0.20185,0.0585 0.22396,0.0436 0.12935,-0.0872 0.10326,-0.1259 0.0359,-0.35705 -0.42868,-1.3705 -0.19776,-2.05361 0.21682,-2.33311 0.0951,-0.0641 0.30624,-0.20646 0.56264,0.17385 0.21838,0.32393 0.28809,0.71593 0.41911,1.23704 0.44529,1.93658 0.65175,2.24282 0.79187,2.45067 0.78335,1.16193 2.0658,1.01292 3.27881,0.3077 0.19933,0.50079 0.21051,0.51738 0.47481,1.2815 0.0714,0.14164 0.47924,1.27853 0.50607,1.31833 0.0112,0.0166 0.0872,0.12935 0.21655,0.0421 0.0387,-0.0261 0.0951,-0.0641 0.0792,-0.13539 0.0268,-0.0438 -0.10672,-0.3992 -0.18132,-0.59333 l -0.76386,-2.11096 c 0.4577,-0.30857 1.52014,-1.02484 1.79051,-3.08532 0.1118,-0.90512 5.8e-4,-1.602 -0.11012,-2.0548 -0.0926,-0.3782 -0.52936,-1.60332 -0.88787,-2.1351 -0.46285,-0.68654 -0.90007,-0.63621 -1.11123,-0.49385 -0.30182,0.20348 -0.38934,0.72721 -0.20896,0.99475 0.10211,0.15146 0.22835,0.17892 0.40854,0.19573 0.21953,0.0466 0.7311,0.14229 1.12687,0.72934 0.52696,0.78162 0.5642,2.18928 0.42526,2.92295 -0.33867,1.79938 -1.11587,2.32335 -1.55257,2.61776 z"
           style="fill:#000000;fill-opacity:1;fill-rule:nonzero;stroke:none;stroke-width:1.33333" />
        <path
           id="path68"
           d="m 292.10418,229.7712 c -0.53888,-0.79932 -1.88817,-2.34514 -3.11865,-1.51558 -1.69371,1.14186 -1.25201,5.81132 0.62027,8.58847 0.76845,1.13982 2.01752,2.25793 3.11866,1.51557 1.71029,-1.15303 1.21101,-5.87212 -0.62028,-8.58846 z m -2.60738,4.16346 c -0.30495,-0.90075 -0.71467,-2.038 -0.80524,-3.24568 -0.0763,-0.80245 -0.0991,-1.78564 0.44924,-2.15533 0.58705,-0.39578 1.1925,0.33293 1.65238,1.01506 0.41068,0.60916 0.7233,1.278 1.2475,2.67093 z m 2.69869,-1.24211 c 0.2389,0.64297 0.68365,1.83217 0.79633,3.02495 0.14596,1.12049 0.084,2.01611 -0.44774,2.37462 -0.39689,0.26758 -0.88492,0.0756 -1.64218,-1.04766 -0.34658,-0.51408 -0.74431,-1.26383 -1.2326,-2.64881 z"
           style="fill:#000000;fill-opacity:1;fill-rule:nonzero;stroke:none;stroke-width:1.33333" />
        <path
           id="path69"
           d="m 379.85866,175.53954 c -0.0261,-0.0387 -0.0776,-0.19855 -0.0776,-0.19855 -0.0119,-0.0177 -0.0902,-0.13377 -0.24165,-0.0317 -0.11608,0.0783 -0.10769,0.12888 -0.0247,0.37363 l 1.18108,3.26887 c -1.86596,1.37055 -2.57961,4.16887 -1.46384,5.82388 0.77962,1.15641 2.27631,1.5303 3.82185,0.62662 0.14939,0.42672 0.32189,0.88772 0.48321,1.33212 0.23313,0.67258 0.42894,1.20631 0.45204,1.24058 0.0783,0.11608 0.18526,0.0697 0.24165,0.0317 0.0564,-0.038 0.0621,-0.0676 0.0747,-0.13241 0.01,-0.0307 -0.1084,-0.36591 -0.18672,-0.56557 l -0.75869,-2.11284 c 1.90579,-1.39257 2.56936,-4.21984 1.48042,-5.83505 -0.65217,-0.96736 -2.04238,-1.63173 -3.82074,-0.62737 z m 3.07232,9.5613 c -0.74691,0.44726 -1.91285,0.59975 -2.72229,-0.60089 -0.98459,-1.46043 -1.08095,-3.85738 0.61113,-5.24256 z m -1.80935,-6.04693 c 0.9711,-0.57268 2.02292,-0.4842 2.74217,0.58266 0.97192,1.44165 1.09213,3.87397 -0.60889,5.24588 z"
           style="fill:#000000;fill-opacity:1;fill-rule:nonzero;stroke:none;stroke-width:1.33333" />
        <path
           id="path70"
           d="m 288.20167,216.14487 c 0,0 7.41667,-2.52536 13.28269,3.79047 5.8616,6.31882 3.15269,14.43898 3.15269,14.43898"
           style="fill:none;stroke:#000000;stroke-width:1.66251;stroke-linecap:round;stroke-linejoin:round;stroke-miterlimit:4;stroke-dasharray:none;stroke-opacity:1" />
        <path
           id="path71"
           d="m 305.49002,168.45326 c -0.51074,-0.57869 -0.46489,-1.08075 -0.2036,-1.53993 l -0.39537,-0.2239 c -0.15039,0.30883 -0.33375,0.67847 -0.49318,0.9548 -0.21586,0.37869 -0.55619,0.92814 -0.7122,1.15231 l 0.39836,0.22832 c 0.2624,-0.45991 0.65662,-0.60026 1.01454,-0.39614 0.0812,0.0466 0.12202,0.0689 0.23531,0.23694 l 2.58646,3.00643 -4.25636,-0.76786 c -0.18406,-0.0512 -0.21656,-0.0421 -0.27702,-0.077 -0.33789,-0.19351 -0.0494,-0.68869 0.0946,-0.94978 l -0.39835,-0.22832 c -0.19619,0.39116 -0.53675,1.04045 -0.71853,1.35757 -0.21585,0.37869 -0.44075,0.72489 -0.67737,1.09185 l 0.39835,0.22833 c 0.2624,-0.45992 0.39531,-0.6444 0.63322,-0.69223 0.11307,-0.0183 0.57425,0.0599 0.85558,0.11464 l 2.47243,2.83728 -4.07676,-0.71849 c -0.19023,-0.0293 -0.211,-0.0411 -0.27071,-0.0748 -0.3379,-0.1935 -0.0576,-0.69123 0.0828,-0.92901 l -0.39836,-0.22832 c -0.19582,0.38931 -0.58516,1.11651 -0.74827,1.39693 -0.0304,0.0575 -0.4415,0.72378 -0.71914,1.16824 l 0.39836,0.22833 c 0.36356,-0.63425 0.49191,-0.77064 0.98151,-0.70513 l 5.40754,0.97749 c 0.21026,0.04 0.3346,0.0574 0.42142,-0.1024 0.10669,-0.17806 0.0361,-0.24463 -0.1086,-0.40437 l -2.84335,-3.33978 4.33917,0.76188 c 0.16439,0.0387 0.28542,0.0584 0.38803,-0.12331 0.0898,-0.15541 -0.008,-0.26473 -0.1003,-0.37298 z"
           style="fill:#000000;fill-opacity:1;fill-rule:nonzero;stroke:none;stroke-width:1.33333" />
        <path
           id="path72"
           d="m 306.16213,164.13119 -0.86982,1.84873 0.39835,0.22832 c 0.46653,-0.81784 0.61222,-0.89033 1.22869,-0.53408 l 3.42599,1.94999 c 0.55302,0.31701 0.47682,0.45683 -0.0128,1.31435 l 0.39946,0.22758 c 0.20645,-0.40933 0.58441,-1.11762 0.75149,-1.4184 0.26314,-0.45881 0.53571,-0.88217 0.80273,-1.30661 l -0.39835,-0.22832 c -0.4863,0.85529 -0.56911,0.86126 -1.06982,0.57652 z m -2.18193,-1.29965 c -0.39871,-0.22648 -0.85062,-0.0858 -1.05475,0.27209 -0.2239,0.39537 -0.0499,0.86819 0.29245,1.05872 0.3379,0.1935 0.83448,0.10957 1.0628,-0.28878 0.20413,-0.35792 0.0979,-0.81371 -0.3005,-1.04203 z"
           style="fill:#000000;fill-opacity:1;fill-rule:nonzero;stroke:none;stroke-width:1.33333" />
        <path
           id="path73"
           d="m 308.93996,162.17643 3.40378,1.94567 c 0.55745,0.31403 0.47683,0.45682 -0.0114,1.30695 l 0.39836,0.22832 c 0.24018,-0.46424 0.58516,-1.11651 0.79039,-1.47518 0.18178,-0.31712 0.57674,-0.95967 0.84743,-1.3882 l -0.39761,-0.22722 c -0.48961,0.85753 -0.57321,0.9959 -1.12698,0.67778 l -2.3493,-1.3428 c -1.31446,-0.74759 -1.50695,-2.06828 -1.05215,-2.86535 0.46653,-0.81783 1.22183,-0.57287 1.95733,-0.15214 l 2.96463,1.69499 c 0.55819,0.31514 0.47758,0.45793 -0.008,1.31248 l 0.39573,0.22205 c 0.22921,-0.44237 0.58517,-1.11651 0.77757,-1.45366 0.18178,-0.31713 0.58956,-0.98119 0.84928,-1.38784 l -0.39946,-0.22758 c -0.3786,0.65725 -0.56038,0.97438 -0.93907,0.75852 l -2.42424,-1.38715 c -1.09784,-0.62187 -1.47542,-0.83847 -2.15626,-0.70107 -0.32072,0.0538 -0.81633,0.32521 -1.23705,1.06072 -0.53915,0.93433 -0.33921,1.83673 0.25262,2.65019 l -1.33338,-0.75896 -0.88155,1.8695 0.39761,0.22722 c 0.50754,-0.89534 0.64704,-0.9508 1.28129,-0.58724 z"
           style="fill:#000000;fill-opacity:1;fill-rule:nonzero;stroke:none;stroke-width:1.33333" />
        <path
           id="path74"
           d="m 318.57804,153.79406 0.8375,0.47899 0.92734,-1.95182 -0.39871,-0.22648 c -0.50024,0.87755 -0.64704,0.95079 -1.28572,0.59022 l -7.69881,-4.39519 -0.89625,1.88584 0.39871,0.22647 c 0.4999,-0.87089 0.6383,-0.9256 1.27255,-0.56204 l 2.74578,1.56595 c -0.66405,0.0955 -1.31708,0.46021 -1.70299,1.13525 -0.85354,1.49363 -0.35849,3.53979 1.27165,4.47656 1.61082,0.91765 3.57217,0.39938 4.39596,-1.0549 0.46914,-0.81156 0.34956,-1.6234 0.13299,-2.16885 z m -3.4008,-1.94124 2.60373,1.48644 c 0.21885,0.12904 0.23888,0.13966 0.37855,0.40408 0.40316,0.7268 0.36103,1.44666 0.0429,2.00043 -0.32576,0.57821 -0.92606,0.84462 -1.57605,0.86796 -0.69918,0.0243 -1.43811,-0.34424 -1.97851,-0.65207 -0.45177,-0.25986 -1.19631,-0.71308 -1.56929,-1.3975 -0.24301,-0.50834 -0.38539,-1.2228 0.013,-1.91751 0.25067,-0.43915 0.75361,-0.86666 1.52621,-0.9228 0.29837,-0.013 0.31914,-10e-4 0.55946,0.13097 z"
           style="fill:#000000;fill-opacity:1;fill-rule:nonzero;stroke:none;stroke-width:1.33333" />
        <path
           id="path75"
           d="m 321.41996,210.54109 c -0.19841,-0.75227 0.0675,-1.17596 0.5042,-1.47037 l -0.2564,-0.38031 c -0.27405,0.20888 -0.59966,0.46055 -0.86831,0.64167 -0.36262,0.24447 -0.90819,0.58012 -1.14822,0.71782 l 0.2564,0.38031 c 0.44001,-0.29664 0.85741,-0.24518 1.08698,0.0953 0.0499,0.0741 0.076,0.11277 0.10442,0.31231 l 0.98214,3.842 -3.47545,-2.57433 c -0.13639,-0.12836 -0.17042,-0.13114 -0.20844,-0.18752 -0.21764,-0.32282 0.25775,-0.64332 0.50429,-0.80953 l -0.25639,-0.38031 c -0.34813,0.25882 -0.94128,0.69086 -1.2442,0.89509 -0.36262,0.24447 -0.71914,0.45267 -1.09295,0.68055 l 0.2564,0.38031 c 0.43669,-0.29441 0.63803,-0.40602 0.87391,-0.34474 0.10856,0.0394 0.4868,0.31181 0.71549,0.48406 l 0.95816,3.63947 -3.33539,-2.45006 c -0.15739,-0.1142 -0.16931,-0.13189 -0.20732,-0.18827 -0.21764,-0.32282 0.25664,-0.64257 0.48549,-0.79686 l -0.2564,-0.38031 c -0.35144,0.26106 -1.01866,0.74304 -1.2862,0.92341 -0.0564,0.038 -0.71915,0.45267 -1.16592,0.72975 l 0.2564,0.38031 c 0.60806,-0.40993 0.7856,-0.47335 1.19271,-0.19626 l 4.41429,3.26803 c 0.17042,0.13114 0.27321,0.20013 0.42467,0.098 0.17247,-0.11627 0.13911,-0.20153 0.0792,-0.41201 l -1.07117,-4.25312 3.55625,2.6083 c 0.12664,0.10437 0.22944,0.17336 0.4019,0.0571 0.15146,-0.10211 0.10971,-0.23799 0.0724,-0.37684 z"
           style="fill:#000000;fill-opacity:1;fill-rule:nonzero;stroke:none;stroke-width:1.33333" />
        <path
           id="path76"
           d="m 328.4768,210.36807 c 0.37688,0.43738 1.04738,0.73308 1.61785,0.34848 0.26754,-0.18037 0.89202,-0.84741 0.22569,-1.83577 l -0.46286,-0.68655 -0.30292,0.20422 0.46285,0.68655 c 0.47478,0.70424 0.22216,0.98068 0.0884,1.07087 -0.40132,0.27056 -0.82739,-0.23979 -0.86838,-0.30059 l -1.62409,-2.409 c -0.34658,-0.51409 -0.66708,-0.98947 -1.41234,-1.15277 -0.79478,-0.15563 -1.53214,0.0649 -2.1026,0.44949 -1.00606,0.67825 -1.45505,1.8107 -0.91617,2.61002 0.24447,0.36262 0.63038,0.40315 0.95431,0.18476 0.34051,-0.22956 0.38289,-0.61512 0.17867,-0.91804 -0.10435,-0.15478 -0.42905,-0.51476 -0.99952,-0.13017 0.048,-0.6659 0.54924,-1.19842 0.92513,-1.45184 0.60916,-0.41068 1.61546,-0.39925 2.34663,0.6853 l 0.29367,0.43559 c -0.60408,0.46353 -1.41084,1.06532 -1.92997,1.93631 -0.62849,1.03316 -0.51287,1.86536 -0.15436,2.39714 0.66633,0.98836 2.04907,0.49675 2.80859,-0.0153 0.79931,-0.53888 1.01525,-1.40165 0.87143,-2.10871 z m -1.41532,-1.94191 0.81838,1.2139 c 0.76844,1.13982 0.17422,2.14988 -0.37414,2.51957 -0.59147,0.39876 -1.36703,0.31217 -1.77696,-0.29588 -0.4487,-0.66555 -0.61287,-2.01818 1.33272,-3.43759 z"
           style="fill:#000000;fill-opacity:1;fill-rule:nonzero;stroke:none;stroke-width:1.33333" />
        <path
           id="path77"
           d="m 333.11517,202.71274 c -0.0795,-0.36125 -0.22613,-1.03428 0.56877,-1.57018 l -0.2564,-0.38031 c -0.27405,0.20888 -0.60076,0.4613 -0.886,0.6536 -0.28412,0.19155 -0.84738,0.53913 -1.07083,0.66565 l 0.25639,0.38031 c 0.4367,-0.29441 0.76202,-0.10047 0.91631,0.12838 0.076,0.11277 0.0963,0.18108 0.14784,0.34094 l 0.82317,3.92343 -3.63098,-2.47108 c -0.17842,-0.10484 -0.19034,-0.12253 -0.21643,-0.16123 -0.20347,-0.30181 0.27191,-0.62231 0.50076,-0.77659 l -0.25639,-0.38031 c -0.36913,0.27298 -1.01866,0.74303 -1.3039,0.93533 -0.32392,0.21839 -0.83191,0.52869 -1.20571,0.75658 l 0.2564,0.38031 c 0.76062,-0.51279 0.86619,-0.47784 1.26102,-0.21658 l 4.65729,3.13475 c 0.19253,0.11623 0.24713,0.16143 0.39859,0.0593 0.17246,-0.11627 0.13513,-0.25512 0.11549,-0.4059 z"
           style="fill:#000000;fill-opacity:1;fill-rule:nonzero;stroke:none;stroke-width:1.33333" />
        <path
           id="path78"
           d="m 336.13434,202.08434 c -1.13975,-1.85755 -0.31506,-2.85253 0.0995,-3.13203 1.2349,-0.83254 2.46879,0.70907 2.78929,1.18446 z m 0.18037,0.26754 3.38078,-2.27924 c 0.26755,-0.18037 0.30735,-0.2072 0.12697,-0.47475 -0.80645,-1.19621 -2.26727,-1.92714 -3.76972,-0.91423 -1.40405,0.94658 -1.67985,2.96086 -0.65501,4.481 1.08894,1.61521 3.15594,1.93104 4.5423,0.99639 1.48145,-0.99875 1.12566,-2.71909 0.97137,-2.94794 -0.076,-0.11277 -0.19719,-0.0874 -0.27568,-0.0344 -0.0951,0.0641 -0.0816,0.16758 -0.0341,0.27384 0.42546,1.53507 -0.67567,2.27743 -0.78844,2.35345 -0.60916,0.41068 -1.32791,0.36781 -1.91874,0.10683 -0.74721,-0.32599 -1.28535,-1.1242 -1.57975,-1.5609 z"
           style="fill:#000000;fill-opacity:1;fill-rule:nonzero;stroke:none;stroke-width:1.33333" />
        <path
           id="path79"
           d="m 343.16837,198.36649 c 0.30481,-0.1251 1.42248,-0.60202 2.01353,0.27469 0.4077,0.60474 0.32335,1.38361 -0.62632,2.02386 -1.02374,0.69018 -1.92771,0.30102 -2.85649,-0.59243 -0.1408,-0.12537 -0.16689,-0.16406 -0.30066,-0.0739 -0.15146,0.10211 -0.0993,0.1795 0.0408,0.38735 l 1.08893,1.61521 c 0.14236,0.21116 0.1923,0.28523 0.32607,0.19505 0.0564,-0.038 0.0622,-0.0676 0.13672,-0.45076 0.006,-0.0296 -0.008,-0.0506 0.0691,-0.42933 0.86234,0.1342 1.42705,-0.22078 1.67359,-0.38699 1.38636,-0.93465 1.40492,-2.1355 0.81685,-3.00778 -0.42187,-0.62575 -1.03646,-0.76457 -1.28253,-0.79325 -0.66447,-0.12932 -1.20396,0.0961 -1.78214,0.34761 -0.77231,0.3261 -1.67263,0.71277 -2.14741,0.009 -0.29367,-0.43559 -0.32283,-1.13954 0.7175,-1.84091 1.32998,-0.89664 2.15157,0.15268 2.41263,0.50412 0.0753,0.11166 0.19247,0.0327 0.21016,0.0207 0.17246,-0.11627 0.13445,-0.17265 -0.0198,-0.4015 l -0.83254,-1.23491 c -0.1282,-0.19015 -0.19229,-0.28523 -0.32607,-0.19504 -0.0564,0.038 -0.0951,0.0641 -0.14144,0.32209 -0.0156,0.0604 -0.0493,0.25357 -0.083,0.33251 -0.68767,-0.0397 -1.18406,0.29496 -1.37422,0.42315 -1.48033,0.99801 -1.38093,2.12577 -0.92106,2.8079 0.28248,0.419 0.7022,0.63131 1.2065,0.68047 0.60222,0.0346 0.99193,-0.12199 1.98123,-0.53649 z"
           style="fill:#000000;fill-opacity:1;fill-rule:nonzero;stroke:none;stroke-width:1.33333" />
        <path
           id="path80"
           d="m 356.18917,197.43221 -0.33167,-0.49197 -1.17963,0.79528 -7.51747,-11.15062 1.17962,-0.79528 -0.33167,-0.49197 -1.67602,1.12993 8.18082,12.13456 z"
           style="fill:#000000;fill-opacity:1;fill-rule:nonzero;stroke:none;stroke-width:1.33333" />
        <path
           id="path81"
           d="m 349.93635,180.34115 -0.52011,2.75146 0.3502,0.071 0.59252,-2.19564 2.21891,0.30025 0.0644,-0.35054 z"
           style="fill:#000000;fill-opacity:1;fill-rule:nonzero;stroke:none;stroke-width:1.33333" />
        <path
           id="path82"
           d="m 352.30181,183.58984 c 0,0 -0.0902,-0.13377 -0.24054,-0.0324 -0.28523,0.1923 -1.09341,0.87545 -1.39125,1.13253 -0.0951,0.0641 -0.21693,0.17197 -0.0776,0.37871 0.10509,0.15588 0.21675,0.0806 0.38922,-0.0357 0.58815,-0.39652 0.65835,-0.33771 0.74854,-0.20394 l 0.12751,0.27262 2.95335,8.15407 c 0.0569,0.20605 0.0718,0.22816 0.12101,0.30113 0.1923,0.28523 0.47685,0.17541 0.59293,0.0971 0.15146,-0.10211 0.24348,-0.32817 0.23179,-0.51486 -0.0196,-0.15078 -0.97766,-2.76441 -1.11116,-3.11984 0.4451,-0.24379 1.56166,-0.71996 2.09979,0.0782 0.0641,0.0951 0.0902,0.13377 0.13944,0.29031 0.0736,0.14495 0.15286,0.31021 0.24379,0.44509 0.47404,0.70313 1.28185,0.87572 1.90759,0.45386 0.36262,-0.24448 0.57604,-0.66494 0.53799,-1.29859 -0.0556,-0.73599 -0.3705,-1.49172 -0.38466,-1.51273 -0.0902,-0.13377 -0.20296,-0.0577 -0.24165,-0.0317 -0.11719,0.079 -0.0928,0.15099 -0.0182,0.34512 0.34451,1.04292 0.49883,1.84903 -0.0329,2.20754 -0.24544,0.16547 -0.48708,0.13381 -0.78074,-0.30178 -0.14311,-0.21227 -0.27902,-0.53551 -0.36778,-0.75065 -0.0837,-0.24586 -0.10983,-0.28455 -0.20001,-0.41832 -0.52398,-0.77721 -1.51491,-0.60603 -2.66177,-0.0531 0.23795,-0.46756 0.37845,-1.11544 0.44252,-1.59763 0.15028,-1.04363 0.35946,-1.92596 0.94761,-2.32248 0.0774,-0.0522 0.0951,-0.0641 0.12727,-0.0617 0.16338,-0.0844 0.16338,-0.0844 0.32722,-0.0823 0.0221,-0.0149 0.034,0.003 0.0666,0.013 -0.54438,0.42329 -0.3374,0.9736 -0.23529,1.12506 0.1282,0.19015 0.41626,0.32882 0.73687,0.11267 0.32393,-0.21839 0.48407,-0.71549 0.16357,-1.19088 -0.24447,-0.36262 -0.79728,-0.56722 -1.32795,-0.20946 -0.34161,0.23031 -0.83029,0.69806 -1.0504,2.25349 -0.11044,0.74018 -0.25304,1.5519 -0.59115,2.0307 z"
           style="fill:#000000;fill-opacity:1;fill-rule:nonzero;stroke:none;stroke-width:1.33333" />
        <path
           id="path83"
           d="m 356.88263,179.31483 -1.65391,1.11502 0.33168,0.49197 1.17852,-0.79452 7.51747,11.15061 -1.17852,0.79453 0.33168,0.49197 1.6539,-1.11502 z"
           style="fill:#000000;fill-opacity:1;fill-rule:nonzero;stroke:none;stroke-width:1.33333" />
      </g>
    </g>
  </g>
</svg>
